<svg xmlns="http://www.w3.org/2000/svg" width="32" height="32" viewBox="0 0 32 32" fill="none"><rect width="32" height="32" rx="6" fill="#181e29"/><path d="M16 8a8 8 0 00-2.53 15.6c.4.08.55-.17.55-.38v-1.33c-2.23.48-2.7-1.07-2.7-1.07-.36-.92-.88-1.16-.88-1.16-.72-.5.05-.49.05-.49.8.06 1.22.82 1.22.82.71 1.22 1.87.87 2.33.67.07-.52.28-.87.5-1.07-1.78-.2-3.64-.89-3.64-3.97 0-.88.31-1.6.82-2.16-.08-.2-.36-1.01.08-2.1 0 0 .67-.22 2.2.82a7.6 7.6 0 012-.27c.68 0 1.36.09 2 .27 1.53-1.04 2.2-.82 2.2-.82.44 1.09.16 1.9.08 2.1.51.56.82 1.28.82 2.16 0 3.09-1.87 3.77-3.65 3.97.29.25.54.74.54 1.5v2.22c0 .21.15.46.55.38A8 8 0 0016 8z" fill="#fff"/></svg> 