<svg xmlns="http://www.w3.org/2000/svg" width="32" height="32" viewBox="0 0 32 32" fill="none"><rect width="32" height="32" rx="6" fill="#fffde7"/><path d="M8 6h16v20l-8 2-8-2V6zm2 2v16l6 1.5 6-1.5V8H10zm7.2 10.7c.2.5.5.9 1.1.9.5 0 .8-.2 1-.7.2-.4.1-.7-.2-1.1-.2-.3-.6-.5-1.2-.8-.9-.4-1.5-.8-1.8-1.3-.3-.5-.4-1.1-.2-1.7.2-.6.6-1.1 1.2-1.3.6-.2 1.3-.1 1.8.2.5.3.8.7 1 1.2l-1.2.7c-.1-.2-.2-.4-.4-.5-.2-.1-.4-.1-.6 0-.2.1-.3.3-.2.5.1.2.3.3.7.5.9.4 1.5.8 1.8 1.3.3.5.4 1.1.2 1.7-.2.6-.6 1.1-1.2 1.3-.6.2-1.3.1-1.8-.2-.5-.3-.8-.7-1-1.2l1.2-.7zm-4.2 0c.2.5.5.9 1.1.9.5 0 .8-.2 1-.7.2-.4.1-.7-.2-1.1-.2-.3-.6-.5-1.2-.8-.9-.4-1.5-.8-1.8-1.3-.3-.5-.4-1.1-.2-1.7.2-.6.6-1.1 1.2-1.3.6-.2 1.3-.1 1.8.2.5.3.8.7 1 1.2l-1.2.7c-.1-.2-.2-.4-.4-.5-.2-.1-.4-.1-.6 0-.2.1-.3.3-.2.5.1.2.3.3.7.5.9.4 1.5.8 1.8 1.3.3.5.4 1.1.2 1.7-.2.6-.6 1.1-1.2 1.3-.6.2-1.3.1-1.8-.2-.5-.3-.8-.7-1-1.2l1.2-.7z" fill="#fbc02d"/></svg> 