<svg xmlns="http://www.w3.org/2000/svg" width="32" height="32" viewBox="0 0 32 32" fill="none"><rect width="32" height="32" rx="6" fill="#1da1f2"/><path d="M25.6 11.54a6.56 6.56 0 01-1.89.52 3.3 3.3 0 001.44-1.81 6.56 6.56 0 01-2.08.8 3.28 3.28 0 00-5.59 2.99A9.32 9.32 0 019.04 10.6a3.28 3.28 0 001.01 4.37 3.28 3.28 0 01-1.49-.41v.04a3.28 3.28 0 002.63 3.22 3.3 3.3 0 01-1.48.06 3.28 3.28 0 003.06 2.28A6.6 6.6 0 018 22.07a9.29 9.29 0 005.03 1.47c6.04 0 9.35-5 9.35-9.34 0-.14 0-.28-.01-.42A6.7 6.7 0 0026 11.1a6.56 6.56 0 01-1.89.52z" fill="#fff"/></svg> 